<svg version="1.1" id="Layer_1" xmlns="http://www.w3.org/2000/svg" xmlns:xlink="http://www.w3.org/1999/xlink" x="0px" y="0px"
	 width="100%" viewBox="0 0 123 123" enable-background="new 0 0 123 123" xml:space="preserve">
<path fill="#FFFDFD" opacity="1.000000" stroke="none" 
	d="
M77.000000,124.000000 
	C51.333332,124.000000 26.166666,124.000000 1.000000,124.000000 
	C1.000000,83.000000 1.000000,42.000000 1.000000,1.000000 
	C42.000000,1.000000 83.000000,1.000000 124.000000,1.000000 
	C124.000000,42.000000 124.000000,83.000000 124.000000,124.000000 
	C108.500000,124.000000 93.000000,124.000000 77.000000,124.000000 
M115.999008,45.289009 
	C113.577751,38.260632 111.560577,37.122166 101.005768,36.005703 
	C100.892403,26.255018 97.999245,21.822710 90.893768,21.773123 
	C66.910988,21.605751 42.926037,21.631460 18.942673,21.743904 
	C12.799996,21.772705 8.942317,25.721809 8.902359,31.831570 
	C8.791256,48.819523 8.793514,65.809105 8.898860,82.797127 
	C8.937811,89.078354 12.956880,92.866302 19.324699,93.100601 
	C20.821337,93.155670 22.322193,93.096176 23.942802,93.945251 
	C24.178493,103.928047 27.050194,108.432220 34.399525,108.503647 
	C58.225349,108.735191 82.055641,108.689880 105.882431,108.512215 
	C112.000313,108.466606 115.060013,105.140533 116.108864,98.066963 
	C116.039925,80.719238 115.970985,63.371521 115.999008,45.289009 
z"/>
<path fill="#F47B01" opacity="1.000000" stroke="none" 
	d="
M23.821108,93.089386 
	C22.322193,93.096176 20.821337,93.155670 19.324699,93.100601 
	C12.956880,92.866302 8.937811,89.078354 8.898860,82.797127 
	C8.793514,65.809105 8.791256,48.819523 8.902359,31.831570 
	C8.942317,25.721809 12.799996,21.772705 18.942673,21.743904 
	C42.926037,21.631460 66.910988,21.605751 90.893768,21.773123 
	C97.999245,21.822710 100.892403,26.255018 101.010109,36.907120 
	C101.008781,52.442204 101.035126,67.075981 100.984138,81.709480 
	C100.958076,89.191856 97.097900,92.996834 89.671181,93.008438 
	C67.721169,93.042732 45.771133,93.063393 23.821108,93.089386 
M58.949810,80.073540 
	C68.146820,80.073540 77.343834,80.073540 87.842270,80.073540 
	C82.342102,73.238457 77.765434,67.551010 72.864700,61.460842 
	C71.159264,63.524857 70.000763,65.116554 68.647652,66.520729 
	C66.544296,68.703484 64.308556,70.758675 61.823753,72.260078 
	C56.158421,63.940868 50.493088,55.621658 44.567593,46.920414 
	C36.918037,58.085423 29.648048,68.696426 21.871420,80.046906 
	C34.555752,80.046906 46.285583,80.046906 58.949810,80.073540 
M80.515556,34.785778 
	C73.810181,32.200768 68.029243,39.503307 70.655945,44.208195 
	C72.032036,46.673016 75.457558,49.464363 77.926094,49.435329 
	C80.399223,49.406250 83.725212,46.532749 85.075516,44.038704 
	C87.105659,40.288994 84.637596,37.166355 80.515556,34.785778 
z"/>
<path fill="#E65305" opacity="1.000000" stroke="none" 
	d="
M23.881954,93.517319 
	C45.771133,93.063393 67.721169,93.042732 89.671181,93.008438 
	C97.097900,92.996834 100.958076,89.191856 100.984138,81.709480 
	C101.035126,67.075981 101.008781,52.442204 101.032684,37.330528 
	C111.560577,37.122166 113.577751,38.260632 115.673683,45.963863 
	C115.248352,63.519810 115.139557,80.400871 115.086220,97.282112 
	C115.084427,97.850494 115.641922,98.420654 115.938721,98.989983 
	C115.060013,105.140533 112.000313,108.466606 105.882431,108.512215 
	C82.055641,108.689880 58.225349,108.735191 34.399525,108.503647 
	C27.050194,108.432220 24.178493,103.928047 23.881954,93.517319 
z"/>
<path fill="#E54300" opacity="1.000000" stroke="none" 
	d="
M116.023788,98.528473 
	C115.641922,98.420654 115.084427,97.850494 115.086220,97.282112 
	C115.139557,80.400871 115.248352,63.519810 115.625198,46.331261 
	C115.970985,63.371521 116.039925,80.719238 116.023788,98.528473 
z"/>
<path fill="#942A09" opacity="1.000000" stroke="none" 
	d="
M58.015411,80.046906 
	C46.285583,80.046906 34.555752,80.046906 21.871420,80.046906 
	C29.648048,68.696426 36.918037,58.085423 44.567593,46.920414 
	C50.493088,55.621658 56.158421,63.940868 61.913734,72.919540 
	C60.674282,75.734970 59.344845,77.890938 58.015411,80.046906 
z"/>
<path fill="#BF360C" opacity="1.000000" stroke="none" 
	d="
M58.482613,80.060226 
	C59.344845,77.890938 60.674282,75.734970 62.066322,73.223473 
	C64.308556,70.758675 66.544296,68.703484 68.647652,66.520729 
	C70.000763,65.116554 71.159264,63.524857 72.864700,61.460842 
	C77.765434,67.551010 82.342102,73.238457 87.842270,80.073540 
	C77.343834,80.073540 68.146820,80.073540 58.482613,80.060226 
z"/>
<path fill="#FFF5C0" opacity="1.000000" stroke="none" 
	d="
M80.871834,34.917290 
	C84.637596,37.166355 87.105659,40.288994 85.075516,44.038704 
	C83.725212,46.532749 80.399223,49.406250 77.926094,49.435329 
	C75.457558,49.464363 72.032036,46.673016 70.655945,44.208195 
	C68.029243,39.503307 73.810181,32.200768 80.871834,34.917290 
z"/>
</svg>